<svg xmlns="http://www.w3.org/2000/svg" viewBox="0 0 1300 1050">
  <style>
    @import url('https://fonts.googleapis.com/css2?family=JetBrains+Mono:wght@400;500;600;700&amp;display=swap');
    text { font-family: 'JetBrains Mono', 'Noto Sans SC', 'PingFang SC', 'Microsoft YaHei', sans-serif; }
  </style>
  <defs>
    <pattern id="grid" width="40" height="40" patternUnits="userSpaceOnUse">
      <path d="M 40 0 L 0 0 0 40" fill="none" stroke="#1e293b" stroke-width="0.5"/>
    </pattern>
    <marker id="arrow" markerWidth="10" markerHeight="7" refX="9" refY="3.5" orient="auto">
      <polygon points="0 0, 10 3.5, 0 7" fill="#64748b"/>
    </marker>
    <marker id="arrow-cyan" markerWidth="10" markerHeight="7" refX="9" refY="3.5" orient="auto">
      <polygon points="0 0, 10 3.5, 0 7" fill="#22d3ee"/>
    </marker>
    <marker id="arrow-orange" markerWidth="10" markerHeight="7" refX="9" refY="3.5" orient="auto">
      <polygon points="0 0, 10 3.5, 0 7" fill="#fb923c"/>
    </marker>
    <marker id="arrow-emerald" markerWidth="10" markerHeight="7" refX="9" refY="3.5" orient="auto">
      <polygon points="0 0, 10 3.5, 0 7" fill="#34d399"/>
    </marker>
    <marker id="arrow-violet" markerWidth="10" markerHeight="7" refX="9" refY="3.5" orient="auto">
      <polygon points="0 0, 10 3.5, 0 7" fill="#a78bfa"/>
    </marker>
  </defs>

  <!-- Background -->
  <rect width="100%" height="100%" fill="#0f172a"/>
  <rect width="100%" height="100%" fill="url(#grid)"/>

  <!-- Title -->
  <text x="650" y="34" fill="#f8fafc" font-size="17" font-weight="700" text-anchor="middle">智慧教室 — 多智能体协同系统架构图</text>
  <text x="650" y="53" fill="#94a3b8" font-size="9" text-anchor="middle">五层架构：用户层 → 接入网关 → 智能体引擎 → 数据层 → 基础设施层</text>

  <!-- ============================================ -->
  <!-- LAYER 1: 用户层 (y=70 to 180) -->
  <!-- ============================================ -->
  <rect x="30" y="70" width="1240" height="120" rx="10" fill="none" stroke="#22d3ee" stroke-width="1" stroke-dasharray="12,4"/>
  <text x="48" y="92" fill="#22d3ee" font-size="10" font-weight="700">用户层</text>

  <!-- 教师端 -->
  <rect x="80" y="105" width="200" height="65" rx="6" fill="#0f172a"/>
  <rect x="80" y="105" width="200" height="65" rx="6" fill="rgba(8,51,68,0.5)" stroke="#22d3ee" stroke-width="2"/>
  <text x="180" y="132" fill="#f8fafc" font-size="11" font-weight="600" text-anchor="middle">👨‍🏫 教师端</text>
  <text x="180" y="150" fill="#94a3b8" font-size="8" text-anchor="middle">Web 管理后台</text>
  <text x="180" y="163" fill="#64748b" font-size="7" text-anchor="middle">备课 · 授课 · 看报告</text>

  <!-- 学生端 -->
  <rect x="340" y="105" width="200" height="65" rx="6" fill="#0f172a"/>
  <rect x="340" y="105" width="200" height="65" rx="6" fill="rgba(8,51,68,0.5)" stroke="#22d3ee" stroke-width="2"/>
  <text x="440" y="132" fill="#f8fafc" font-size="11" font-weight="600" text-anchor="middle">🎒 学生端</text>
  <text x="440" y="150" fill="#94a3b8" font-size="8" text-anchor="middle">微信小程序 / App</text>
  <text x="440" y="163" fill="#64748b" font-size="7" text-anchor="middle">上课 · 交作业 · 看诊断</text>

  <!-- 家长端 -->
  <rect x="600" y="105" width="200" height="65" rx="6" fill="#0f172a"/>
  <rect x="600" y="105" width="200" height="65" rx="6" fill="rgba(8,51,68,0.5)" stroke="#22d3ee" stroke-width="2"/>
  <text x="700" y="132" fill="#f8fafc" font-size="11" font-weight="600" text-anchor="middle">👨‍👩‍👧 家长端</text>
  <text x="700" y="150" fill="#94a3b8" font-size="8" text-anchor="middle">微信小程序</text>
  <text x="700" y="163" fill="#64748b" font-size="7" text-anchor="middle">查看报告 · 家校沟通</text>

  <!-- 管理员端 -->
  <rect x="860" y="105" width="200" height="65" rx="6" fill="#0f172a"/>
  <rect x="860" y="105" width="200" height="65" rx="6" fill="rgba(8,51,68,0.5)" stroke="#22d3ee" stroke-width="2"/>
  <text x="960" y="132" fill="#f8fafc" font-size="11" font-weight="600" text-anchor="middle">⚙️ 管理员端</text>
  <text x="960" y="150" fill="#94a3b8" font-size="8" text-anchor="middle">Web 管理后台</text>
  <text x="960" y="163" fill="#64748b" font-size="7" text-anchor="middle">系统配置 · 数据管理</text>

  <!-- ============================================ -->
  <!-- LAYER 2: 接入网关层 (y=200 to 300) -->
  <!-- ============================================ -->
  <rect x="30" y="200" width="1240" height="110" rx="10" fill="none" stroke="#fbbf24" stroke-width="1" stroke-dasharray="12,4"/>
  <text x="48" y="222" fill="#fbbf24" font-size="10" font-weight="700">接入网关层</text>

  <!-- API Gateway -->
  <rect x="80" y="235" width="280" height="55" rx="6" fill="#0f172a"/>
  <rect x="80" y="235" width="280" height="55" rx="6" fill="rgba(120,53,15,0.3)" stroke="#fbbf24" stroke-width="1.5"/>
  <text x="220" y="258" fill="#fbbf24" font-size="11" font-weight="600" text-anchor="middle">API Gateway</text>
  <text x="220" y="276" fill="#94a3b8" font-size="8" text-anchor="middle">Kong / Nginx · 路由 · 限流 · 鉴权</text>

  <!-- 身份认证 -->
  <rect x="420" y="235" width="220" height="55" rx="6" fill="#0f172a"/>
  <rect x="420" y="235" width="220" height="55" rx="6" fill="rgba(120,53,15,0.3)" stroke="#fbbf24" stroke-width="1.5"/>
  <text x="530" y="258" fill="#fbbf24" font-size="11" font-weight="600" text-anchor="middle">🔐 身份认证服务</text>
  <text x="530" y="276" fill="#94a3b8" font-size="8" text-anchor="middle">OAuth 2.0 · JWT · SSO</text>

  <!-- 权限管理 -->
  <rect x="700" y="235" width="220" height="55" rx="6" fill="#0f172a"/>
  <rect x="700" y="235" width="220" height="55" rx="6" fill="rgba(120,53,15,0.3)" stroke="#fbbf24" stroke-width="1.5"/>
  <text x="810" y="258" fill="#fbbf24" font-size="11" font-weight="600" text-anchor="middle">🛡️ 权限管理</text>
  <text x="810" y="276" fill="#94a3b8" font-size="8" text-anchor="middle">RBAC · 教师/学生/家长角色</text>

  <!-- Load Balancer -->
  <rect x="980" y="235" width="260" height="55" rx="6" fill="#0f172a"/>
  <rect x="980" y="235" width="260" height="55" rx="6" fill="rgba(120,53,15,0.3)" stroke="#fbbf24" stroke-width="1.5"/>
  <text x="1110" y="258" fill="#fbbf24" font-size="11" font-weight="600" text-anchor="middle">⚖️ 负载均衡</text>
  <text x="1110" y="276" fill="#94a3b8" font-size="8" text-anchor="middle">Nginx · 健康检查 · 灰度发布</text>

  <!-- Down arrows from users to gateway -->
  <line x1="180" y1="175" x2="220" y2="232" stroke="#64748b" stroke-width="1" marker-end="url(#arrow)"/>
  <line x1="440" y1="175" x2="440" y2="232" stroke="#64748b" stroke-width="1" marker-end="url(#arrow)"/>
  <line x1="700" y1="175" x2="700" y2="232" stroke="#64748b" stroke-width="1" marker-end="url(#arrow)"/>
  <line x1="960" y1="175" x2="960" y2="232" stroke="#64748b" stroke-width="1" marker-end="url(#arrow)"/>

  <!-- ============================================ -->
  <!-- LAYER 3: 智能体引擎层 (y=320 to 680) -->
  <!-- ============================================ -->
  <rect x="30" y="320" width="1240" height="370" rx="10" fill="none" stroke="#34d399" stroke-width="2" stroke-dasharray="12,4"/>
  <text x="48" y="342" fill="#34d399" font-size="10" font-weight="700">智能体引擎层（核心）</text>

  <!-- Agent 1: A1 -->
  <rect x="70" y="360" width="210" height="90" rx="6" fill="#0f172a"/>
  <rect x="70" y="360" width="210" height="90" rx="6" fill="rgba(8,51,68,0.5)" stroke="#22d3ee" stroke-width="2"/>
  <text x="175" y="385" fill="#22d3ee" font-size="11" font-weight="700" text-anchor="middle">🧠 A1 课程规划</text>
  <text x="175" y="405" fill="#94a3b8" font-size="8" text-anchor="middle">知识图谱构建</text>
  <text x="175" y="420" fill="#94a3b8" font-size="8" text-anchor="middle">学情数据分析</text>
  <text x="175" y="435" fill="#94a3b8" font-size="8" text-anchor="middle">分层教学计划生成</text>

  <!-- Agent 2: A2 -->
  <rect x="310" y="360" width="210" height="90" rx="6" fill="#0f172a"/>
  <rect x="310" y="360" width="210" height="90" rx="6" fill="rgba(6,78,59,0.5)" stroke="#34d399" stroke-width="2"/>
  <text x="415" y="385" fill="#34d399" font-size="11" font-weight="700" text-anchor="middle">💬 A2 教学互动</text>
  <text x="415" y="405" fill="#94a3b8" font-size="8" text-anchor="middle">NLU 多轮对话</text>
  <text x="415" y="420" fill="#94a3b8" font-size="8" text-anchor="middle">情感感知与识别</text>
  <text x="415" y="435" fill="#94a3b8" font-size="8" text-anchor="middle">引导式提问生成</text>

  <!-- Agent 3: A3 -->
  <rect x="550" y="360" width="210" height="90" rx="6" fill="#0f172a"/>
  <rect x="550" y="360" width="210" height="90" rx="6" fill="rgba(251,146,60,0.3)" stroke="#fb923c" stroke-width="2"/>
  <text x="655" y="385" fill="#fb923c" font-size="11" font-weight="700" text-anchor="middle">✍️ A3 作业批改</text>
  <text x="655" y="405" fill="#94a3b8" font-size="8" text-anchor="middle">语义理解与批改</text>
  <text x="655" y="420" fill="#94a3b8" font-size="8" text-anchor="middle">解题步骤追踪</text>
  <text x="655" y="435" fill="#94a3b8" font-size="8" text-anchor="middle">错因分类 + 评语</text>

  <!-- Agent 4: A4 -->
  <rect x="790" y="360" width="210" height="90" rx="6" fill="#0f172a"/>
  <rect x="790" y="360" width="210" height="90" rx="6" fill="rgba(76,29,149,0.5)" stroke="#a78bfa" stroke-width="2"/>
  <text x="895" y="385" fill="#a78bfa" font-size="11" font-weight="700" text-anchor="middle">🔍 A4 学习诊断</text>
  <text x="895" y="405" fill="#94a3b8" font-size="8" text-anchor="middle">DKT 知识追踪</text>
  <text x="895" y="420" fill="#94a3b8" font-size="8" text-anchor="middle">薄弱点热力图</text>
  <text x="895" y="435" fill="#94a3b8" font-size="8" text-anchor="middle">遗忘曲线预测</text>

  <!-- Agent 5: A5 -->
  <rect x="1030" y="360" width="210" height="90" rx="6" fill="#0f172a"/>
  <rect x="1030" y="360" width="210" height="90" rx="6" fill="rgba(76,29,149,0.7)" stroke="#a78bfa" stroke-width="3"/>
  <text x="1135" y="385" fill="#a78bfa" font-size="11" font-weight="700" text-anchor="middle">📊 A5 综合评价</text>
  <text x="1135" y="405" fill="#94a3b8" font-size="8" text-anchor="middle">多维度数据融合</text>
  <text x="1135" y="420" fill="#94a3b8" font-size="8" text-anchor="middle">学生画像生成</text>
  <text x="1135" y="435" fill="#94a3b8" font-size="8" text-anchor="middle">趋势预测 + 预警</text>

  <!-- Message Bus between agents -->
  <rect x="55" y="470" width="1200" height="40" rx="4" fill="rgba(251,146,60,0.1)" stroke="#fb923c" stroke-width="1.5" stroke-dasharray="4,4"/>
  <text x="650" y="495" fill="#fb923c" font-size="10" font-weight="700" text-anchor="middle">📨 消息总线 (Message Bus) — Apache Kafka / RabbitMQ — Agent 间异步解耦通信</text>

  <!-- Connections from agents to bus -->
  <line x1="175" y1="455" x2="175" y2="468" stroke="#22d3ee" stroke-width="1.2" marker-end="url(#arrow-cyan)"/>
  <line x1="415" y1="455" x2="415" y2="468" stroke="#34d399" stroke-width="1.2" marker-end="url(#arrow-emerald)"/>
  <line x1="655" y1="455" x2="655" y2="468" stroke="#fb923c" stroke-width="1.2" marker-end="url(#arrow-orange)"/>
  <line x1="895" y1="455" x2="895" y2="468" stroke="#a78bfa" stroke-width="1.2" marker-end="url(#arrow-violet)"/>
  <line x1="1135" y1="455" x2="1135" y2="468" stroke="#a78bfa" stroke-width="1.2" marker-end="url(#arrow-violet)"/>

  <!-- Agent Collaboration Labels -->
  <text x="650" y="540" fill="#94a3b8" font-size="9" text-anchor="middle">协同关系：A1 ⇄ A2（教学计划同步）│ A2 → A3（实时批改调用）│ A3 → A4（诊断数据推送）</text>
  <text x="650" y="558" fill="#94a3b8" font-size="9" text-anchor="middle">A4 ⇄ A1（闭环反馈）│ A1~A4 → A5（评价数据汇聚）│ A5 → A1（周期优化起点）</text>

  <!-- ============================================ -->
  <!-- LAYER 4: 数据层 (y=700 to 850) -->
  <!-- ============================================ -->
  <rect x="30" y="700" width="1240" height="140" rx="10" fill="none" stroke="#a78bfa" stroke-width="1" stroke-dasharray="12,4"/>
  <text x="48" y="722" fill="#a78bfa" font-size="10" font-weight="700">数据层</text>

  <!-- 知识图谱 -->
  <g transform="translate(80, 735)">
    <rect x="0" y="10" width="200" height="60" rx="2" fill="#0f172a"/>
    <ellipse cx="100" cy="10" rx="100" ry="14" fill="#0f172a"/>
    <ellipse cx="100" cy="70" rx="100" ry="14" fill="#0f172a"/>
    <rect x="0" y="10" width="200" height="60" fill="rgba(76,29,149,0.4)"/>
    <ellipse cx="100" cy="10" rx="100" ry="14" fill="rgba(76,29,149,0.4)" stroke="#a78bfa" stroke-width="1.5"/>
    <ellipse cx="100" cy="70" rx="100" ry="14" fill="rgba(76,29,149,0.4)" stroke="#a78bfa" stroke-width="1.5"/>
    <line x1="0" y1="10" x2="0" y2="70" stroke="#a78bfa" stroke-width="1.5"/>
    <line x1="200" y1="10" x2="200" y2="70" stroke="#a78bfa" stroke-width="1.5"/>
    <text x="100" y="47" fill="#f8fafc" font-size="11" font-weight="600" text-anchor="middle">Neo4j 知识图谱</text>
  </g>

  <!-- 学生模型 -->
  <g transform="translate(330, 735)">
    <rect x="0" y="10" width="200" height="60" rx="2" fill="#0f172a"/>
    <ellipse cx="100" cy="10" rx="100" ry="14" fill="#0f172a"/>
    <ellipse cx="100" cy="70" rx="100" ry="14" fill="#0f172a"/>
    <rect x="0" y="10" width="200" height="60" fill="rgba(76,29,149,0.4)"/>
    <ellipse cx="100" cy="10" rx="100" ry="14" fill="rgba(76,29,149,0.4)" stroke="#a78bfa" stroke-width="1.5"/>
    <ellipse cx="100" cy="70" rx="100" ry="14" fill="rgba(76,29,149,0.4)" stroke="#a78bfa" stroke-width="1.5"/>
    <line x1="0" y1="10" x2="0" y2="70" stroke="#a78bfa" stroke-width="1.5"/>
    <line x1="200" y1="10" x2="200" y2="70" stroke="#a78bfa" stroke-width="1.5"/>
    <text x="100" y="47" fill="#f8fafc" font-size="11" font-weight="600" text-anchor="middle">PostgreSQL 学生模型</text>
  </g>

  <!-- 题库 -->
  <g transform="translate(580, 735)">
    <rect x="0" y="10" width="200" height="60" rx="2" fill="#0f172a"/>
    <ellipse cx="100" cy="10" rx="100" ry="14" fill="#0f172a"/>
    <ellipse cx="100" cy="70" rx="100" ry="14" fill="#0f172a"/>
    <rect x="0" y="10" width="200" height="60" fill="rgba(76,29,149,0.4)"/>
    <ellipse cx="100" cy="10" rx="100" ry="14" fill="rgba(76,29,149,0.4)" stroke="#a78bfa" stroke-width="1.5"/>
    <ellipse cx="100" cy="70" rx="100" ry="14" fill="rgba(76,29,149,0.4)" stroke="#a78bfa" stroke-width="1.5"/>
    <line x1="0" y1="10" x2="0" y2="70" stroke="#a78bfa" stroke-width="1.5"/>
    <line x1="200" y1="10" x2="200" y2="70" stroke="#a78bfa" stroke-width="1.5"/>
    <text x="100" y="47" fill="#f8fafc" font-size="11" font-weight="600" text-anchor="middle">MongoDB 题库</text>
  </g>

  <!-- 日志 -->
  <g transform="translate(830, 735)">
    <rect x="0" y="10" width="200" height="60" rx="2" fill="#0f172a"/>
    <ellipse cx="100" cy="10" rx="100" ry="14" fill="#0f172a"/>
    <ellipse cx="100" cy="70" rx="100" ry="14" fill="#0f172a"/>
    <rect x="0" y="10" width="200" height="60" fill="rgba(76,29,149,0.4)"/>
    <ellipse cx="100" cy="10" rx="100" ry="14" fill="rgba(76,29,149,0.4)" stroke="#a78bfa" stroke-width="1.5"/>
    <ellipse cx="100" cy="70" rx="100" ry="14" fill="rgba(76,29,149,0.4)" stroke="#a78bfa" stroke-width="1.5"/>
    <line x1="0" y1="10" x2="0" y2="70" stroke="#a78bfa" stroke-width="1.5"/>
    <line x1="200" y1="10" x2="200" y2="70" stroke="#a78bfa" stroke-width="1.5"/>
    <text x="100" y="47" fill="#f8fafc" font-size="11" font-weight="600" text-anchor="middle">MongoDB 行为日志</text>
  </g>

  <!-- Redis Cache -->
  <rect x="1080" y="745" width="160" height="60" rx="6" fill="#0f172a"/>
  <rect x="1080" y="745" width="160" height="60" rx="6" fill="rgba(136,19,55,0.3)" stroke="#fb7185" stroke-width="1.5"/>
  <text x="1160" y="770" fill="#fb7185" font-size="11" font-weight="600" text-anchor="middle">⚡ Redis 缓存</text>
  <text x="1160" y="788" fill="#94a3b8" font-size="8" text-anchor="middle">会话 · 热数据 · 排行榜</text>

  <!-- ============================================ -->
  <!-- LAYER 5: 基础设施层 (y=860 to 980) -->
  <!-- ============================================ -->
  <rect x="30" y="860" width="1240" height="110" rx="10" fill="none" stroke="#64748b" stroke-width="1" stroke-dasharray="12,4"/>
  <text x="48" y="882" fill="#94a3b8" font-size="10" font-weight="700">基础设施层</text>

  <!-- LLM Service -->
  <rect x="70" y="895" width="220" height="55" rx="6" fill="#0f172a"/>
  <rect x="70" y="895" width="220" height="55" rx="6" fill="rgba(30,41,59,0.5)" stroke="#94a3b8" stroke-width="1.5"/>
  <text x="180" y="918" fill="#f8fafc" font-size="11" font-weight="600" text-anchor="middle">🧠 LLM 推理服务</text>
  <text x="180" y="936" fill="#94a3b8" font-size="8" text-anchor="middle">GPT-5 / Claude API</text>

  <!-- OCR -->
  <rect x="320" y="895" width="200" height="55" rx="6" fill="#0f172a"/>
  <rect x="320" y="895" width="200" height="55" rx="6" fill="rgba(30,41,59,0.5)" stroke="#94a3b8" stroke-width="1.5"/>
  <text x="420" y="918" fill="#f8fafc" font-size="11" font-weight="600" text-anchor="middle">👁️ OCR 识别引擎</text>
  <text x="420" y="936" fill="#94a3b8" font-size="8" text-anchor="middle">PaddleOCR / Mathpix</text>

  <!-- ASR -->
  <rect x="550" y="895" width="200" height="55" rx="6" fill="#0f172a"/>
  <rect x="550" y="895" width="200" height="55" rx="6" fill="rgba(30,41,59,0.5)" stroke="#94a3b8" stroke-width="1.5"/>
  <text x="650" y="918" fill="#f8fafc" font-size="11" font-weight="600" text-anchor="middle">🎤 语音识别服务</text>
  <text x="650" y="936" fill="#94a3b8" font-size="8" text-anchor="middle">Whisper · 课堂语音</text>

  <!-- Vector DB -->
  <rect x="780" y="895" width="200" height="55" rx="6" fill="#0f172a"/>
  <rect x="780" y="895" width="200" height="55" rx="6" fill="rgba(30,41,59,0.5)" stroke="#94a3b8" stroke-width="1.5"/>
  <text x="880" y="918" fill="#f8fafc" font-size="11" font-weight="600" text-anchor="middle">📐 向量数据库</text>
  <text x="880" y="936" fill="#94a3b8" font-size="8" text-anchor="middle">Milvus · RAG 知识检索</text>

  <!-- K8s -->
  <rect x="1010" y="895" width="230" height="55" rx="6" fill="#0f172a"/>
  <rect x="1010" y="895" width="230" height="55" rx="6" fill="rgba(30,41,59,0.5)" stroke="#94a3b8" stroke-width="1.5"/>
  <text x="1125" y="918" fill="#f8fafc" font-size="11" font-weight="600" text-anchor="middle">☸️ Kubernetes 集群</text>
  <text x="1125" y="936" fill="#94a3b8" font-size="8" text-anchor="middle">容器编排 · 自动扩缩容</text>

  <!-- Cross-layer connection hints -->
  <line x1="220" y1="315" x2="220" y2="355" stroke="#64748b" stroke-width="1" stroke-dasharray="4,4" marker-end="url(#arrow)"/>
  <line x1="650" y1="315" x2="650" y2="550" stroke="#64748b" stroke-width="0.5" stroke-dasharray="4,4"/>
  <text x="230" y="340" fill="#64748b" font-size="7">请求路由</text>
</svg>
